<?xml version="1.0" encoding="UTF-8" standalone="no"?>
<!-- Created with Inkscape (http://www.inkscape.org/) -->

<svg
   xmlns:dc="http://purl.org/dc/elements/1.1/"
   xmlns:cc="http://creativecommons.org/ns#"
   xmlns:rdf="http://www.w3.org/1999/02/22-rdf-syntax-ns#"
   xmlns:svg="http://www.w3.org/2000/svg"
   xmlns="http://www.w3.org/2000/svg"
   xmlns:sodipodi="http://sodipodi.sourceforge.net/DTD/sodipodi-0.dtd"
   xmlns:inkscape="http://www.inkscape.org/namespaces/inkscape"
   version="1.1"
   id="svg2"
   xml:space="preserve"
   width="82.931999"
   height="82.931999"
   viewBox="0 0 82.931998 82.932001"
   sodipodi:docname="ifsp.svg"
   inkscape:version="0.92.2 2405546, 2018-03-11"><metadata
     id="metadata8"><rdf:RDF><cc:Work
         rdf:about=""><dc:format>image/svg+xml</dc:format><dc:type
           rdf:resource="http://purl.org/dc/dcmitype/StillImage" /><dc:title></dc:title></cc:Work></rdf:RDF></metadata><defs
     id="defs6"><clipPath
       clipPathUnits="userSpaceOnUse"
       id="clipPath24"><path
         d="M 0,108.385 H 352 V 0 H 0 Z"
         id="path22"
         inkscape:connector-curvature="0" /></clipPath></defs><sodipodi:namedview
     pagecolor="#ffffff"
     bordercolor="#666666"
     borderopacity="1"
     objecttolerance="10"
     gridtolerance="10"
     guidetolerance="10"
     inkscape:pageopacity="0"
     inkscape:pageshadow="2"
     inkscape:window-width="1920"
     inkscape:window-height="1021"
     id="namedview4"
     showgrid="false"
     inkscape:zoom="2.6034385"
     inkscape:cx="25.558535"
     inkscape:cy="95.496426"
     inkscape:window-x="0"
     inkscape:window-y="0"
     inkscape:window-maximized="1"
     inkscape:current-layer="g10" /><g
     id="g10"
     inkscape:groupmode="layer"
     inkscape:label="Marca_IFSP_2015_Caraguatatuba"
     transform="matrix(1.3333333,0,0,-1.3333333,0,82.932)"><g
       id="g18"
       transform="matrix(0.99999894,0,0,1,-10.177356,-23.138499)"><g
         id="g20"
         clip-path="url(#clipPath24)"><g
           id="g26"
           transform="translate(48.2969,72.5977)"><path
             d="m 0,0 c 0,-0.718 -0.584,-1.302 -1.303,-1.302 h -10.769 c -0.719,0 -1.303,0.584 -1.303,1.302 v 10.769 c 0,0.72 0.584,1.301 1.303,1.301 H -1.303 C -0.584,12.07 0,11.489 0,10.769 Z"
             style="fill:#399936;fill-opacity:1;fill-rule:nonzero;stroke:none"
             id="path28"
             inkscape:connector-curvature="0" /></g><g
           id="g30"
           transform="translate(64.3428,72.5977)"><path
             d="m 0,0 c 0,-0.718 -0.581,-1.302 -1.3,-1.302 h -10.769 c -0.721,0 -1.301,0.584 -1.301,1.302 v 10.769 c 0,0.72 0.58,1.301 1.301,1.301 H -1.3 c 0.719,0 1.3,-0.581 1.3,-1.301 z"
             style="fill:#399936;fill-opacity:1;fill-rule:nonzero;stroke:none"
             id="path32"
             inkscape:connector-curvature="0" /></g><g
           id="g34"
           transform="translate(64.3428,40.5029)"><path
             d="m 0,0 c 0,-0.719 -0.581,-1.3 -1.3,-1.3 h -10.769 c -0.721,0 -1.301,0.581 -1.301,1.3 v 10.77 c 0,0.72 0.58,1.302 1.301,1.302 H -1.3 c 0.719,0 1.3,-0.582 1.3,-1.302 z"
             style="fill:#399936;fill-opacity:1;fill-rule:nonzero;stroke:none"
             id="path36"
             inkscape:connector-curvature="0" /></g><g
           id="g38"
           transform="translate(32.252,56.5615)"><path
             d="m 0,0 c 0,-0.722 -0.585,-1.302 -1.303,-1.302 h -10.77 c -0.719,0 -1.302,0.58 -1.302,1.302 v 10.769 c 0,0.719 0.583,1.303 1.302,1.303 h 10.77 C -0.585,12.072 0,11.488 0,10.769 Z"
             style="fill:#399936;fill-opacity:1;fill-rule:nonzero;stroke:none"
             id="path40"
             inkscape:connector-curvature="0" /></g><g
           id="g42"
           transform="translate(48.2969,56.5615)"><path
             d="m 0,0 c 0,-0.722 -0.584,-1.302 -1.303,-1.302 h -10.769 c -0.719,0 -1.303,0.58 -1.303,1.302 v 10.769 c 0,0.719 0.584,1.303 1.303,1.303 H -1.303 C -0.584,12.072 0,11.488 0,10.769 Z"
             style="fill:#399936;fill-opacity:1;fill-rule:nonzero;stroke:none"
             id="path44"
             inkscape:connector-curvature="0" /></g><g
           id="g46"
           transform="translate(32.252,40.5029)"><path
             d="m 0,0 c 0,-0.719 -0.585,-1.3 -1.303,-1.3 h -10.77 c -0.719,0 -1.302,0.581 -1.302,1.3 v 10.77 c 0,0.72 0.583,1.302 1.302,1.302 h 10.77 C -0.585,12.072 0,11.49 0,10.77 Z"
             style="fill:#399936;fill-opacity:1;fill-rule:nonzero;stroke:none"
             id="path48"
             inkscape:connector-curvature="0" /></g><g
           id="g50"
           transform="translate(48.2969,40.5029)"><path
             d="m 0,0 c 0,-0.719 -0.584,-1.3 -1.303,-1.3 h -10.769 c -0.719,0 -1.303,0.581 -1.303,1.3 v 10.77 c 0,0.72 0.584,1.302 1.303,1.302 H -1.303 C -0.584,12.072 0,11.49 0,10.77 Z"
             style="fill:#399936;fill-opacity:1;fill-rule:nonzero;stroke:none"
             id="path52"
             inkscape:connector-curvature="0" /></g><g
           id="g54"
           transform="translate(32.252,24.4395)"><path
             d="m 0,0 c 0,-0.718 -0.585,-1.301 -1.303,-1.301 h -10.77 c -0.719,0 -1.302,0.583 -1.302,1.301 v 10.771 c 0,0.717 0.583,1.3 1.302,1.3 h 10.77 c 0.718,0 1.303,-0.583 1.303,-1.3 z"
             style="fill:#399936;fill-opacity:1;fill-rule:nonzero;stroke:none"
             id="path56"
             inkscape:connector-curvature="0" /></g><g
           id="g58"
           transform="translate(48.2969,24.4395)"><path
             d="m 0,0 c 0,-0.718 -0.584,-1.301 -1.303,-1.301 h -10.769 c -0.719,0 -1.303,0.583 -1.303,1.301 v 10.771 c 0,0.717 0.584,1.3 1.303,1.3 h 10.769 c 0.719,0 1.303,-0.583 1.303,-1.3 z"
             style="fill:#399936;fill-opacity:1;fill-rule:nonzero;stroke:none"
             id="path60"
             inkscape:connector-curvature="0" /></g><g
           id="g62"
           transform="translate(32.918,77.9805)"><path
             d="m 0,0 c 0,-4.06 -3.293,-7.354 -7.354,-7.354 -4.063,0 -7.353,3.294 -7.353,7.354 0,4.063 3.29,7.357 7.353,7.357 C -3.293,7.357 0,4.063 0,0"
             style="fill:#ca1517;fill-opacity:1;fill-rule:nonzero;stroke:none"
             id="path64"
             inkscape:connector-curvature="0" /></g></g></g></g></svg>