<?xml version="1.0" encoding="UTF-8" standalone="no"?>
<!-- Generator: Adobe Illustrator 18.1.1, SVG Export Plug-In . SVG Version: 6.00 Build 0)  -->

<svg
   xmlns:dc="http://purl.org/dc/elements/1.1/"
   xmlns:cc="http://creativecommons.org/ns#"
   xmlns:rdf="http://www.w3.org/1999/02/22-rdf-syntax-ns#"
   xmlns:svg="http://www.w3.org/2000/svg"
   xmlns="http://www.w3.org/2000/svg"
   xmlns:sodipodi="http://sodipodi.sourceforge.net/DTD/sodipodi-0.dtd"
   xmlns:inkscape="http://www.inkscape.org/namespaces/inkscape"
   version="1.1"
   id="Layer_1"
   x="0px"
   y="0px"
   viewBox="0 0 299.79199 243.526"
   enable-background="new 0 0 612 792"
   xml:space="preserve"
   sodipodi:docname="heart-icon.svg"
   width="299.79199"
   height="243.526"
   inkscape:version="0.92.2 2405546, 2018-03-11"><metadata
   id="metadata9"><rdf:RDF><cc:Work
       rdf:about=""><dc:format>image/svg+xml</dc:format><dc:type
         rdf:resource="http://purl.org/dc/dcmitype/StillImage" /><dc:title></dc:title></cc:Work></rdf:RDF></metadata><defs
   id="defs7" /><sodipodi:namedview
   pagecolor="#ffffff"
   bordercolor="#666666"
   borderopacity="1"
   objecttolerance="10"
   gridtolerance="10"
   guidetolerance="10"
   inkscape:pageopacity="0"
   inkscape:pageshadow="2"
   inkscape:window-width="1920"
   inkscape:window-height="1021"
   id="namedview5"
   showgrid="false"
   inkscape:zoom="0.84281414"
   inkscape:cx="412.03407"
   inkscape:cy="451.64383"
   inkscape:window-x="0"
   inkscape:window-y="0"
   inkscape:window-maximized="1"
   inkscape:current-layer="Layer_1" />
<path
   stroke-miterlimit="10"
   d="m 150.81739,243.526 c -0.5,-0.4 -0.9,-0.7 -1.2,-1 -13.1,-14.2 -27.9,-26.6 -43.2,-38.3 -14.8,-11.3 -29.8,-22.4 -44.6,-33.6 -12.9,-9.8 -25,-20.5 -35.8,-32.6 -8.8,-9.8 -16,-20.5 -20.5999997,-33 -4.59999999,-12.6 -6.39999999,-25.6 -4.89999999,-38.9 2.29999999,-20.1 10.89999969,-37.1 26.89999969,-49.9 9,-7.2 19.3,-11.5 30.4,-14.1 17.7,-4.1 34.8,-2.2 51.3,5.1 14.1,6.3 24.6,16.7 32.6,29.8 2.5,4.2 4.6,8.6 6.9,12.9 0.3,0.5 0.5,1 1,1.7 0.5,-1 0.9,-1.9 1.3,-2.7 6.3,-14 15.3,-25.8 27.9,-34.8 10.3,-7.4 21.7,-11.7 34.3,-13.3 9.7,-1.2 19.4,-1.1 28.9,1.2 23.5,5.6 49,21.8 55.9,55.2 2,9.7 2.4,19.5 1.2,29.4 -0.7,6 -2.8,11.8 -4.9,17.5 -6.1,16.2 -15.8,29.9 -27.7,42.2 -9.3,9.5 -19.5,17.8 -30,25.8 -14.8,11.4 -29.7,22.5 -44.4,34 -12.8,10 -25.2,20.5 -36.4,32.3 -1.7,1.5 -3.2,3.3 -4.9,5.1 z"
   id="path2"
   style="fill:#ff5555;stroke:none;stroke-miterlimit:10"
   inkscape:connector-curvature="0" />
</svg>