<?xml version="1.0" encoding="UTF-8" standalone="no"?>
<!-- Generator: Adobe Illustrator 19.0.0, SVG Export Plug-In . SVG Version: 6.00 Build 0)  -->

<svg
   xmlns:dc="http://purl.org/dc/elements/1.1/"
   xmlns:cc="http://creativecommons.org/ns#"
   xmlns:rdf="http://www.w3.org/1999/02/22-rdf-syntax-ns#"
   xmlns:svg="http://www.w3.org/2000/svg"
   xmlns="http://www.w3.org/2000/svg"
   xmlns:sodipodi="http://sodipodi.sourceforge.net/DTD/sodipodi-0.dtd"
   xmlns:inkscape="http://www.inkscape.org/namespaces/inkscape"
   version="1.1"
   id="Layer_1"
   x="0px"
   y="0px"
   viewBox="0 0 512 512"
   style="enable-background:new 0 0 512 512;"
   xml:space="preserve"
   sodipodi:docname="medal-bronze.svg"
   inkscape:version="0.92.2 2405546, 2018-03-11"><metadata
   id="metadata61"><rdf:RDF><cc:Work
       rdf:about=""><dc:format>image/svg+xml</dc:format><dc:type
         rdf:resource="http://purl.org/dc/dcmitype/StillImage" /></cc:Work></rdf:RDF></metadata><defs
   id="defs59" /><sodipodi:namedview
   pagecolor="#ffffff"
   bordercolor="#666666"
   borderopacity="1"
   objecttolerance="10"
   gridtolerance="10"
   guidetolerance="10"
   inkscape:pageopacity="0"
   inkscape:pageshadow="2"
   inkscape:window-width="1920"
   inkscape:window-height="1021"
   id="namedview57"
   showgrid="false"
   inkscape:zoom="0.921875"
   inkscape:cx="405.77807"
   inkscape:cy="279.82645"
   inkscape:window-x="0"
   inkscape:window-y="0"
   inkscape:window-maximized="1"
   inkscape:current-layer="Layer_1" />
<g
   id="g6">
	<path
   style="fill:#bd6917;fill-opacity:1"
   d="M357.046,344.611H154.632v135.203l52.721-23.844h97.294l52.721,23.844V378.126v-0.133   C357.262,378.04,357.152,344.565,357.046,344.611z"
   id="path2" />
	<polygon
   style="fill:#bd6917;fill-opacity:1"
   points="256.001,344.611 154.632,344.611 154.632,479.814 207.354,455.97 256.001,455.97  "
   id="polygon4" />
</g>
<polygon
   style="fill:#e78e37;fill-opacity:1"
   points="207.354,344.59 207.354,512 256.001,489.998 304.648,512 304.648,344.632 304.648,344.632   "
   id="polygon8" />
<polygon
   style="fill:#f0b886;fill-opacity:1"
   points="256.001,344.611 207.354,344.59 207.354,512 256.001,489.998 256.001,489.998 "
   id="polygon10" />
<polygon
   style="fill:#bd6917;fill-opacity:1"
   points="47.487,198.359 77.829,140.465 87.301,75.786 145.916,46.821 191.552,0 256.001,11.071   320.449,0 366.084,46.821 424.699,75.786 434.172,140.465 464.513,198.359 434.172,256.253 424.699,320.931 366.084,349.896   320.449,396.717 256.001,385.647 191.552,396.718 145.916,349.896 87.301,320.931 77.829,256.253 "
   id="polygon12" />
<g
   id="g18">
	<polygon
   style="fill:#e78e37;fill-opacity:1"
   points="256.001,11.071 191.552,0 145.916,46.821 87.301,75.786 77.829,140.465 47.487,198.359    77.829,256.253 87.301,320.931 145.916,349.896 191.552,396.718 256.001,385.647  "
   id="polygon14" />
	<circle
   style="fill:#e78e37;fill-opacity:1"
   cx="256.003"
   cy="198.359"
   r="157.565"
   id="circle16" />
</g>
<path
   style="fill:#f0b886;fill-opacity:1"
   d="M256.001,40.799L256.001,40.799c-87.019,0-157.561,70.542-157.561,157.56  S168.982,355.92,256.001,355.92l0,0V40.799z"
   id="path20" />
<path
   style="fill:#bd6917;fill-opacity:1"
   d="M256.001,80.828c-64.806,0-117.53,52.724-117.53,117.531S191.194,315.89,256,315.89  s117.53-52.724,117.53-117.531S320.806,80.828,256.001,80.828z"
   id="path22" />
<path
   style="fill:#e78e37;fill-opacity:1"
   d="M256.001,80.828c-64.806,0-117.53,52.724-117.53,117.531S191.194,315.89,256,315.89L256.001,80.828  L256.001,80.828z"
   id="path24" />
<g
   id="g26">
</g>
<g
   id="g28">
</g>
<g
   id="g30">
</g>
<g
   id="g32">
</g>
<g
   id="g34">
</g>
<g
   id="g36">
</g>
<g
   id="g38">
</g>
<g
   id="g40">
</g>
<g
   id="g42">
</g>
<g
   id="g44">
</g>
<g
   id="g46">
</g>
<g
   id="g48">
</g>
<g
   id="g50">
</g>
<g
   id="g52">
</g>
<g
   id="g54">
</g>
</svg>